PathFileType	4	(X/Y/Z)	D:\TRACE\v60_Jaco2_6-2-23\BothDRS_Motion3_5-v60.trc
DataRate	CameraRate	NumFrames	NumMarkers	Units	OrigDataRate	OrigDataStartFrame	OrigNumFrames
100.00	100.00	      13	9	mm	100.00	6126	      7000
Frame#	Time	front left toe			Front right toe			aft left toe			aft right toe			Arm			FL body			FR body			AL Body			AR Body			
		X1	Y1	Z1	X2	Y2	Z2	X3	Y3	Z3	X4	Y4	Z4	X5	Y5	Z5	X6	Y6	Z6	X7	Y7	Z7	X8	Y8	Z8	X9	Y9	Z9	

6126	61.250	-128.46591	99.14438	-130.37769	250.01389	19.76756	-151.11627	-125.85971	-1.07071	473.48364	243.86053	76.95525	494.59518	136.33507	1137.43665	-485.68842	-14.81404	524.61847	-314.71472	143.25577	519.72449	-313.44916	-11.84448	532.31116	630.74957	140.00720	517.41406	629.69958	
6127	61.260	-128.74974	89.52810	-126.58691	249.96420	19.75938	-151.12242	-126.10377	-1.21172	473.55115	243.23010	66.32971	499.01572	136.13091	1137.25330	-484.46286	-14.86171	524.76251	-313.67734	144.09805	519.63605	-312.82333	-13.04997	531.90308	631.66052	138.86119	517.15845	630.93268	
6128	61.270	-128.80214	79.69049	-123.14917	249.76563	19.70689	-151.15878	-126.37695	-1.23779	473.74109	242.06042	55.28077	502.88754	137.38486	1137.19299	-483.31668	-14.38401	524.65552	-312.54166	143.61569	519.71307	-310.82074	-13.86448	531.97479	632.66748	138.29262	516.80011	632.04584	
6129	61.280	-128.74884	69.69675	-120.21265	249.73764	19.84491	-150.95953	-126.86145	-0.83477	473.92065	240.26437	45.21542	505.61353	136.96332	1137.02026	-481.82864	-14.61032	524.90692	-311.47186	143.77110	519.91632	-309.94641	-14.28149	532.18237	634.06293	137.82143	516.71643	633.59387	
6130	61.290	-129.02164	59.85492	-118.00059	249.70479	19.90112	-150.81291	-127.06588	-0.85562	473.87119	238.65869	35.66462	507.53253	137.24026	1137.13782	-480.67056	-14.55886	524.79773	-310.07791	144.23250	519.89392	-308.81293	-15.39013	531.93414	635.26514	136.90234	516.68097	634.69769	
6131	61.300	-129.84529	50.98195	-116.73149	249.65808	19.90321	-150.58017	-127.28913	-0.87384	473.87854	237.20345	26.63083	508.37241	137.43842	1137.21265	-479.00763	-14.71902	524.78607	-309.37747	143.49959	520.00977	-307.07611	-15.96833	531.59326	636.37256	136.29044	516.28796	635.98328	
6132	61.310	-130.42574	42.71537	-115.97533	249.51129	19.85121	-150.53221	-127.60694	-1.32137	474.33060	236.58415	18.61167	508.41489	137.42780	1137.24622	-477.41580	-14.64050	524.68451	-307.78882	144.12077	519.58685	-306.30615	-17.11385	531.36908	637.64185	135.24693	516.05743	637.23254	
6133	61.320	-131.25526	35.57625	-115.83611	249.56900	19.85968	-150.38527	-127.74259	-1.27268	474.00977	235.95711	11.32636	508.19894	137.58501	1137.27515	-475.88776	-14.95299	524.66095	-307.01947	143.22566	519.65405	-304.70981	-17.58861	531.17371	639.10284	134.41425	515.51001	638.59729	
6134	61.330	-132.25850	29.61496	-116.08449	249.39828	19.83595	-150.28818	-127.82053	-1.44297	474.18890	235.00752	4.88283	507.79172	137.58046	1137.40417	-474.20181	-15.09145	524.79816	-305.63156	142.83963	519.93347	-303.61786	-18.66861	529.64734	638.83978	133.84264	514.95276	639.64514	
6135	61.340	-133.75026	24.06965	-116.47150	249.35983	19.90392	-150.08286	-127.84899	-1.49930	474.30032	233.92772	-1.07790	506.83365	137.82004	1137.66602	-472.67859	-15.08380	525.00574	-304.69131	143.18939	519.80927	-302.21082	-19.89414	528.93054	639.96484	133.21347	514.15997	640.98889	
6136	61.350	-134.32495	21.82964	-118.53630	249.13342	19.75779	-150.13174	-127.91657	-1.51731	474.23541	234.82904	-0.98025	506.34586	137.63084	1138.05664	-470.91714	-14.92102	524.85492	-303.41974	143.16582	519.97418	-301.12753	-20.73296	528.77173	641.14893	132.23605	514.03229	642.07654	
6137	61.360	-135.32249	22.29720	-119.02940	249.05070	19.70938	-149.97565	-127.90139	-1.42417	474.17889	235.43289	-2.01237	506.36868	137.66910	1138.60645	-469.18765	-14.87253	524.72778	-302.23639	142.68709	520.20972	-299.80750	-22.08988	529.51184	642.17712	131.00529	515.01208	643.46997	
6138	61.370	-135.58205	20.09684	-118.15900	248.58920	19.88383	-149.39496	-127.75108	-1.30761	474.41550	234.98386	-1.24980	506.94281	137.39922	1139.22961	-468.09125	-15.01522	525.09119	-301.08536	143.08963	520.19562	-298.26904	-23.37959	530.88953	643.80151	129.73866	516.13647	644.83990	
